# Blender v2.74 (sub 0) OBJ File: ''
# www.blender.org
mtllib halfsphere.mtl
o Sphere
v -250.000000 0.000000 0.000000
v -237.750000 77.250000 -0.000000
v -202.250000 146.950012 -0.000000
v -146.950012 202.250000 -0.000000
v -77.250000 237.750000 -0.000000
v 0.000000 250.000000 -0.000000
v -202.250000 -0.000000 -146.950012
v -192.350006 77.250000 -139.750000
v -163.650009 146.950012 -118.900002
v -118.900002 202.250000 -86.349998
v -62.500000 237.750000 -45.400002
v -77.250000 -0.000000 -237.750000
v -73.449997 77.250000 -226.150009
v -62.500000 146.950012 -192.350006
v -45.400002 202.250000 -139.750000
v -23.850000 237.750000 -73.449997
v 77.250000 -0.000000 -237.750000
v 73.449997 77.250000 -226.150009
v 62.500000 146.950012 -192.350006
v 45.400002 202.250000 -139.750000
v 23.850000 237.750000 -73.449997
v 202.250000 -0.000000 -146.950012
v 192.350006 77.250000 -139.750000
v 163.650009 146.950012 -118.900002
v 118.900002 202.250000 -86.349998
v 62.500000 237.750000 -45.400002
v 250.000000 0.000000 0.000000
v 237.750000 77.250000 -0.000000
v 202.250000 146.950012 -0.000000
v 146.950012 202.250000 -0.000000
v 77.250000 237.750000 -0.000000
v 202.250000 0.000000 146.950012
v 192.350006 77.250000 139.750000
v 163.650009 146.950012 118.900002
v 118.900002 202.250000 86.349998
v 62.500000 237.750000 45.400002
v 77.250000 0.000000 237.750000
v 73.449997 77.250000 226.150009
v 62.500000 146.950012 192.350006
v 45.400002 202.250000 139.750000
v 23.850000 237.750000 73.449997
v -77.250000 0.000000 237.750000
v -73.449997 77.250000 226.150009
v -62.500000 146.950012 192.350006
v -45.400002 202.250000 139.750000
v -23.850000 237.750000 73.449997
v -202.250000 0.000000 146.950012
v -192.350006 77.250000 139.750000
v -163.650009 146.950012 118.900002
v -118.900002 202.250000 86.349998
v -62.500000 237.750000 45.400002
vt 4.000000 4.000000
vt 6.351200 4.000000
vt 6.236000 2.764000
vt 4.000000 2.764000
vt 5.902400 1.648800
vt 4.000000 1.648800
vt 0.764000 4.000000
vt 1.381600 2.097600
vt 2.097600 2.618400
vt 1.648800 4.000000
vt 3.000000 3.273600
vt 2.764000 4.000000
vt 2.824800 2.764000
vt 0.922400 2.764000
vt 3.000000 1.648800
vt 1.381600 1.648800
vt 3.000000 0.922400
vt 3.273600 1.764000
vt 3.618400 2.824800
vt 5.236000 4.000000
vt 5.175200 2.764000
vt 5.000000 1.648800
vt 4.726400 0.764000
vt 3.273600 0.764000
vt 4.726400 1.764000
vt 4.381600 2.824800
vt 1.764000 2.764000
vt 2.097600 1.648800
vt 7.236000 4.000000
vt 6.618400 5.902400
vt 5.902400 5.381600
vt 5.000000 4.726400
vt 7.077600 2.764000
vt 6.618400 1.648800
vt 5.000000 7.077600
vt 4.726400 6.236000
vt 4.381600 5.175200
vt 3.273600 6.236000
vt 3.618400 5.175200
vn 0.961700 -0.274300 -0.000000
vn 0.778000 -0.274100 0.565300
vn 0.773500 -0.293200 0.561900
vn 0.956000 -0.293300 0.000000
vn 0.669400 -0.561600 0.486300
vn 0.827400 -0.561600 0.000000
vn 0.504500 -0.781800 0.366400
vn 0.623500 -0.781800 0.000000
vn 0.291600 -0.932800 0.212000
vn 0.360500 -0.932800 0.000000
vn 0.000000 -1.000000 -0.000000
vn 0.297300 -0.273600 0.914700
vn 0.295300 -0.293200 0.909300
vn 0.255700 -0.561800 0.786800
vn 0.192600 -0.781800 0.593000
vn 0.111300 -0.932800 0.342800
vn -0.297300 -0.273600 0.914700
vn -0.295300 -0.293200 0.909300
vn -0.255700 -0.561800 0.786800
vn -0.192600 -0.781800 0.593000
vn -0.111300 -0.932800 0.342800
vn -0.778000 -0.274100 0.565300
vn -0.773500 -0.293200 0.561900
vn -0.669400 -0.561600 0.486300
vn -0.504500 -0.781800 0.366400
vn -0.291600 -0.932800 0.212000
vn -0.961700 -0.274300 0.000000
vn -0.956000 -0.293300 0.000000
vn -0.827400 -0.561600 0.000000
vn -0.623500 -0.781800 0.000000
vn -0.360500 -0.932800 0.000000
vn -0.778000 -0.274100 -0.565300
vn -0.773500 -0.293200 -0.561900
vn -0.669400 -0.561600 -0.486300
vn -0.504500 -0.781800 -0.366400
vn -0.291600 -0.932800 -0.212000
vn -0.297300 -0.273600 -0.914700
vn -0.295300 -0.293200 -0.909300
vn -0.255700 -0.561800 -0.786800
vn -0.192600 -0.781800 -0.593000
vn -0.111300 -0.932800 -0.342800
vn 0.297300 -0.273600 -0.914700
vn 0.295300 -0.293200 -0.909300
vn 0.255700 -0.561800 -0.786800
vn 0.192600 -0.781800 -0.593000
vn 0.111300 -0.932800 -0.342800
vn 0.778000 -0.274100 -0.565300
vn 0.773500 -0.293200 -0.561900
vn 0.669400 -0.561600 -0.486300
vn 0.504500 -0.781800 -0.366400
vn 0.291600 -0.932800 -0.212000
usemtl sky1Material
s 1
f 1/1/1 7/2/2 8/3/3 2/4/4
f 2/4/4 8/3/3 9/5/5 3/6/6
f 3/7/6 9/8/5 10/9/7 4/10/8
f 4/10/8 10/9/7 11/11/9 5/12/10
f 5/12/10 11/11/9 6/1/11
f 7/7/2 12/12/12 13/13/13 8/14/3
f 8/14/3 13/13/13 14/15/14 9/16/5
f 9/8/5 14/17/14 15/18/15 10/9/7
f 10/9/7 15/18/15 16/19/16 11/11/9
f 11/11/9 16/19/16 6/1/11
f 12/12/12 17/20/17 18/21/18 13/13/13
f 13/13/13 18/21/18 19/22/19 14/15/14
f 14/15/14 19/22/19 20/23/20 15/24/15
f 15/18/15 20/25/20 21/26/21 16/19/16
f 16/19/16 21/26/21 6/1/11
f 17/12/17 22/7/22 23/14/23 18/13/18
f 18/13/18 23/14/23 24/16/24 19/15/19
f 19/17/19 24/8/24 25/9/25 20/18/20
f 20/18/20 25/9/25 26/11/26 21/19/21
f 21/19/21 26/11/26 6/1/11
f 22/10/22 27/1/27 28/4/28 23/27/23
f 23/27/23 28/4/28 29/6/29 24/28/24
f 24/8/24 29/7/29 30/10/30 25/9/25
f 25/9/25 30/10/30 31/12/31 26/11/26
f 26/11/26 31/12/31 6/1/11
f 27/1/27 32/10/32 33/27/33 28/4/28
f 28/4/28 33/27/33 34/28/34 29/6/29
f 29/29/29 34/30/34 35/31/35 30/2/30
f 30/2/30 35/31/35 36/32/36 31/20/31
f 31/20/31 36/32/36 6/1/11
f 32/29/32 37/20/37 38/21/38 33/33/33
f 33/33/33 38/21/38 39/22/39 34/34/34
f 34/30/34 39/35/39 40/36/40 35/31/35
f 35/31/35 40/36/40 41/37/41 36/32/36
f 36/32/36 41/37/41 6/1/11
f 37/12/37 42/20/42 43/21/43 38/13/38
f 38/13/38 43/21/43 44/22/44 39/15/39
f 39/15/39 44/22/44 45/23/45 40/24/40
f 40/38/40 45/36/45 46/37/46 41/39/41
f 41/39/41 46/37/46 6/1/11
f 42/20/42 47/29/47 48/33/48 43/21/43
f 43/21/43 48/33/48 49/34/49 44/22/44
f 44/35/44 49/30/49 50/31/50 45/36/45
f 45/36/45 50/31/50 51/32/51 46/37/46
f 46/37/46 51/32/51 6/1/11
f 47/2/47 1/1/1 2/4/4 48/3/48
f 48/3/48 2/4/4 3/6/6 49/5/49
f 49/30/49 3/29/6 4/2/8 50/31/50
f 50/31/50 4/2/8 5/20/10 51/32/51
f 51/32/51 5/20/10 6/1/11
