{
 "accessors": [
  {
   "componentType": 5126,
   "type": "VEC3",
   "count": 200,
   "max": [
    3.1845390796661377,
    2.9375998973846436,
    1.8613239526748657
   ],
   "min": [
    -1.7718089818954468,
    -8.594399452209473,
    -2.7394230365753174
   ],
   "bufferView": 2
  },
  {
   "componentType": 5126,
   "type": "VEC3",
   "count": 200,
   "bufferView": 3
  },
  {
   "componentType": 5126,
   "type": "VEC2",
   "count": 200,
   "bufferView": 4
  },
  {
   "componentType": 5121,
   "type": "SCALAR",
   "count": 576,
   "bufferView": 5
  },
  {
   "componentType": 5126,
   "type": "VEC3",
   "count": 240,
   "max": [
    4.567318916320801,
    5.36629581451416,
    4.466554164886475
   ],
   "min": [
    -5.452853202819824,
    -2.131795883178711,
    -5.5060319900512695
   ],
   "bufferView": 6
  },
  {
   "componentType": 5126,
   "type": "VEC3",
   "count": 240,
   "bufferView": 7
  },
  {
   "componentType": 5126,
   "type": "VEC2",
   "count": 240,
   "bufferView": 8
  },
  {
   "componentType": 5121,
   "type": "SCALAR",
   "count": 240,
   "bufferView": 9
  }
 ],
 "asset": {
  "version": "2.0",
  "generator": "clara.io"
 },
 "bufferViews": [
  {
   "buffer": 0,
   "byteOffset": 0,
   "byteLength": 61227
  },
  {
   "buffer": 0,
   "byteOffset": 61228,
   "byteLength": 71218
  },
  {
   "buffer": 0,
   "byteOffset": 132448,
   "byteLength": 2400,
   "target": 34962,
   "byteStride": 12
  },
  {
   "buffer": 0,
   "byteOffset": 134848,
   "byteLength": 2400,
   "target": 34962,
   "byteStride": 12
  },
  {
   "buffer": 0,
   "byteOffset": 137248,
   "byteLength": 1600,
   "target": 34962,
   "byteStride": 8
  },
  {
   "buffer": 0,
   "byteOffset": 138848,
   "byteLength": 576,
   "target": 34963
  },
  {
   "buffer": 0,
   "byteOffset": 139424,
   "byteLength": 2880,
   "target": 34962,
   "byteStride": 12
  },
  {
   "buffer": 0,
   "byteOffset": 142304,
   "byteLength": 2880,
   "target": 34962,
   "byteStride": 12
  },
  {
   "buffer": 0,
   "byteOffset": 145184,
   "byteLength": 1920,
   "target": 34962,
   "byteStride": 8
  },
  {
   "buffer": 0,
   "byteOffset": 147104,
   "byteLength": 240,
   "target": 34963
  }
 ],
 "buffers": [
  {
   "byteLength": 147344,
   "uri": "data:application/octet-stream;base64,"
  }
 ],
 "images": [
  {
   "bufferView": 0,
   "mimeType": "image/jpeg"
  },
  {
   "bufferView": 1,
   "mimeType": "image/jpeg"
  }
 ],
 "materials": [
  {
   "pbrMetallicRoughness": {
    "baseColorFactor": [
     0.6901960784313725,
     0.6901960784313725,
     0.6901960784313725,
     1
    ],
    "baseColorTexture": {
     "index": 0,
     "texCoord": 0
    },
    "roughnessFactor": 0.25,
    "metallicFactor": 0
   }
  },
  {
   "pbrMetallicRoughness": {
    "baseColorFactor": [
     0.6901960784313725,
     0.6901960784313725,
     0.6901960784313725,
     1
    ],
    "baseColorTexture": {
     "index": 1,
     "texCoord": 0
    },
    "roughnessFactor": 0.25,
    "metallicFactor": 0
   }
  }
 ],
 "meshes": [
  {
   "primitives": [
    {
     "mode": 4,
     "attributes": {
      "POSITION": 0,
      "NORMAL": 1,
      "TEXCOORD_0": 2
     },
     "indices": 3,
     "material": 0
    }
   ]
  },
  {
   "primitives": [
    {
     "mode": 4,
     "attributes": {
      "POSITION": 4,
      "NORMAL": 5,
      "TEXCOORD_0": 6
     },
     "indices": 7,
     "material": 1
    }
   ]
  }
 ],
 "nodes": [
  {
   "name": "tree1",
   "children": [
    1
   ]
  },
  {
   "name": "Cylinder57",
   "translation": [
    0,
    4.790299892425537,
    0
   ],
   "mesh": 0
  },
  {
   "name": "Cylinder57_Detached",
   "translation": [
    0.3418999910354614,
    4.790299892425537,
    0
   ],
   "scale": [
    0.8187999725341797,
    1.0983999967575073,
    0.8187999725341797
   ],
   "mesh": 1
  }
 ],
 "samplers": [
  {
   "magFilter": 9729,
   "minFilter": 9987,
   "wrapS": 10497,
   "wrapT": 10497
  }
 ],
 "scene": 0,
 "scenes": [
  {
   "nodes": [
    0,
    2
   ]
  }
 ],
 "textures": [
  {
   "sampler": 0,
   "source": 0
  },
  {
   "sampler": 0,
   "source": 1
  }
 ]
}