# Blender v2.74 (sub 0) OBJ File: ''
# www.blender.org
mtllib has.mtl
o Icosahedron5
v 7.349154 8.105927 12.865836
v 7.044924 8.105927 14.413409
v 7.349154 5.553974 12.865836
v 7.044924 5.553974 14.413409
v 5.945026 6.041354 13.393495
v 5.945026 7.618547 13.393495
v 8.449052 6.041354 13.885751
v 8.449052 7.618547 13.885751
v 7.724698 6.829950 15.043751
v 6.177125 6.829950 14.739520
v 8.216953 6.829950 12.539725
v 6.669381 6.829950 12.235495
vt 1.775976 0.500000
vt 0.500000 1.288597
vt 1.288597 1.775976
vt 0.500000 -0.775976
vt 1.288597 0.500000
vt -0.288597 0.500000
vt 0.500000 1.775976
vt -0.775976 0.500000
vt -0.288597 1.775976
vt 0.500000 -0.288597
vt -0.288597 -0.775976
vt 1.288597 -0.775976
vn -0.455100 0.577300 -0.677900
vn -0.350100 0.934200 -0.068800
vn 0.350100 0.934200 0.068800
vn 0.677900 0.577400 -0.455100
vn 0.180200 0.356800 -0.916600
vn -0.677900 0.577400 0.455100
vn -0.847800 0.000000 -0.530300
vn 0.180200 -0.356800 -0.916600
vn 0.985500 0.000000 -0.169900
vn 0.455100 0.577400 0.677900
vn -0.677900 -0.577400 0.455100
vn -0.350100 -0.934200 -0.068800
vn 0.350100 -0.934200 0.068800
vn 0.455100 -0.577400 0.677900
vn -0.180200 -0.356800 0.916600
vn -0.985500 0.000000 0.169900
vn -0.455100 -0.577300 -0.677900
vn 0.677900 -0.577300 -0.455100
vn 0.847800 0.000000 0.530300
vn -0.180200 0.356800 0.916600
usemtl bush_1024x1024_jpgMaterial
s 1
f 12/1/1 6/2/1 1/3/1
f 6/4/2 2/5/2 1/6/2
f 2/6/3 8/7/3 1/5/3
f 8/2/4 11/8/4 1/9/4
f 11/6/5 12/5/5 1/7/5
f 6/2/6 10/1/6 2/3/6
f 12/1/7 5/10/7 6/2/7
f 11/5/8 3/4/8 12/6/8
f 8/2/9 7/10/9 11/8/9
f 2/9/10 9/8/10 8/2/10
f 10/8/11 5/10/11 4/11/11
f 5/4/12 3/5/12 4/6/12
f 3/6/13 7/7/13 4/5/13
f 7/10/14 9/1/14 4/12/14
f 9/6/15 10/5/15 4/4/15
f 10/1/16 6/2/16 5/10/16
f 5/10/17 12/8/17 3/11/17
f 3/12/18 11/1/18 7/10/18
f 7/10/19 8/2/19 9/8/19
f 9/5/20 2/7/20 10/6/20
o Icosahedron9
v 8.769806 6.185726 16.053232
v 8.465574 6.185726 17.600805
v 8.769806 3.633774 16.053232
v 8.465574 3.633774 17.600805
v 7.365677 4.121153 16.580891
v 7.365677 5.698347 16.580891
v 9.869703 4.121153 17.073147
v 9.869703 5.698347 17.073147
v 9.145349 4.909750 18.231148
v 7.597775 4.909750 17.926916
v 9.637605 4.909750 15.727121
v 8.090032 4.909750 15.422891
vt 1.775976 0.500000
vt 0.500000 1.288597
vt 1.288597 1.775976
vt 0.500000 -0.775976
vt 1.288597 0.500000
vt -0.288597 0.500000
vt 0.500000 1.775976
vt -0.775976 0.500000
vt -0.288597 1.775976
vt 0.500000 -0.288597
vt -0.288597 -0.775976
vt 1.288597 -0.775976
vn -0.455100 0.577400 -0.677900
vn -0.350100 0.934200 -0.068800
vn 0.350100 0.934200 0.068800
vn 0.677900 0.577400 -0.455100
vn 0.180200 0.356800 -0.916600
vn -0.677900 0.577300 0.455100
vn -0.847800 0.000000 -0.530300
vn 0.180200 -0.356800 -0.916600
vn 0.985500 0.000000 -0.169900
vn 0.455100 0.577400 0.677900
vn -0.677900 -0.577300 0.455100
vn -0.350100 -0.934200 -0.068800
vn 0.350100 -0.934200 0.068800
vn 0.455100 -0.577300 0.677900
vn -0.180200 -0.356800 0.916600
vn -0.985500 0.000000 0.169900
vn -0.455100 -0.577300 -0.677900
vn 0.677900 -0.577400 -0.455100
vn 0.847800 0.000000 0.530300
vn -0.180200 0.356800 0.916600
usemtl bush_1024x1024_jpgMaterial
s 1
f 24/13/21 18/14/21 13/15/21
f 18/16/22 14/17/22 13/18/22
f 14/18/23 20/19/23 13/17/23
f 20/14/24 23/20/24 13/21/24
f 23/18/25 24/17/25 13/19/25
f 18/14/26 22/13/26 14/15/26
f 24/13/27 17/22/27 18/14/27
f 23/17/28 15/16/28 24/18/28
f 20/14/29 19/22/29 23/20/29
f 14/21/30 21/20/30 20/14/30
f 22/20/31 17/22/31 16/23/31
f 17/16/32 15/17/32 16/18/32
f 15/18/33 19/19/33 16/17/33
f 19/22/34 21/13/34 16/24/34
f 21/18/35 22/17/35 16/16/35
f 22/13/36 18/14/36 17/22/36
f 17/22/37 24/20/37 15/23/37
f 15/24/38 23/13/38 19/22/38
f 19/22/39 20/14/39 21/20/39
f 21/17/40 14/19/40 22/18/40
o default1
v 6.741724 6.749701 15.770446
v 6.614902 6.741750 15.784346
v 6.589529 6.573801 15.774652
v 6.716142 6.581420 15.760798
v 7.011408 5.696391 15.198060
v 6.794179 6.689450 15.540728
v 6.808596 6.676810 15.667080
v 7.030064 5.676110 15.359867
v 7.198868 2.455580 15.485665
v 7.240374 3.953820 15.643201
v 7.405558 3.953820 15.775099
v 7.394773 2.461360 15.644007
v 7.104269 7.972210 15.771621
v 6.831356 5.898160 15.124688
v 6.694244 6.694941 15.461196
v 6.932261 5.540491 15.078511
v 7.181688 6.184751 14.669840
v 7.075963 6.346410 14.836088
v 6.666963 5.867600 15.136665
v 6.567318 6.690081 15.475098
v 6.774817 2.281500 15.718903
v 6.811613 2.631391 15.703487
v 6.394119 3.003490 15.306448
v 6.231836 2.777920 15.201654
v 6.934423 4.111490 15.859772
v 6.622042 5.682540 15.240129
v 6.778047 5.511271 15.090114
v 7.030312 3.953820 15.666694
v 6.487765 6.677771 15.574299
v 6.863293 3.808230 15.804634
v 5.864649 4.431830 16.360283
v 6.078513 4.594541 16.350960
v 6.641701 5.662380 15.401955
v 6.502206 6.665220 15.700666
v 7.061811 1.393568 16.406981
v 7.016717 2.465360 16.116961
v 6.822013 2.465480 15.960375
v 6.802588 1.393939 16.199797
v 7.075662 3.797440 16.160469
v 7.098302 4.111341 16.188143
v 6.956223 4.100050 16.064749
v 6.887310 3.795920 16.019724
v 6.769201 5.652030 15.503576
v 7.308151 3.793000 16.141394
v 7.286140 4.105460 16.160120
v 6.929760 5.657691 15.486135
v 7.442648 3.804080 15.972095
v 7.414200 4.115650 15.998449
v 7.865342 4.361481 16.158907
v 7.978220 4.170520 16.166441
v 7.789161 0.938150 16.087320
v 7.598785 1.393443 16.110842
v 7.391591 1.393940 16.370045
v 7.497130 0.938150 16.451031
v 7.034356 0.938150 16.502319
v 6.670310 0.938150 16.212040
v 6.765718 1.393895 15.870033
v 6.617359 0.938150 15.748617
v 6.972638 1.391652 15.610516
v 6.908138 0.938150 15.382645
v 7.302731 1.391052 15.573538
v 7.373178 0.938150 15.330108
v 7.561972 1.393062 15.780995
v 7.738475 0.938150 15.622649
v 7.422555 2.464690 15.893111
v 7.266472 2.465740 16.089399
v 6.965817 2.637920 15.510581
v 5.748525 5.417020 16.497990
v 5.965763 5.515221 16.493126
v 6.165486 4.545091 16.515242
v 5.960878 4.377730 16.540365
v 6.032880 5.446860 16.636538
v 5.822588 5.342310 16.654905
v 7.059841 6.752070 14.349398
v 6.966240 6.712560 14.327257
v 6.938537 7.279020 14.532325
v 6.884488 6.760000 14.485795
v 6.972813 6.797280 14.506684
v 7.771184 4.328791 16.288296
v 7.875021 4.135090 16.307411
v 7.048074 6.136430 14.661846
v 6.949668 6.300621 14.828351
v 8.053103 4.645061 16.414259
v 5.485912 6.109301 17.183033
v 6.934483 2.289520 15.519806
v 6.257332 3.405340 15.123750
v 6.082007 3.268970 15.016347
v 6.433756 2.811010 14.966465
v 6.576535 3.033381 15.094133
v 6.418011 3.405391 14.950356
v 6.261786 3.269260 14.823945
v 6.438007 3.815750 14.591946
vt 0.812945 0.655542
vt 0.899896 0.792762
vt 0.884770 0.804030
vt 0.789992 0.666778
vt 0.278071 0.435600
vt 0.460360 0.594372
vt 0.433936 0.616956
vt 0.256459 0.466346
vt 0.976142 0.975310
vt 0.875298 0.824618
vt 0.712072 0.802106
vt 0.810210 0.868898
vt 0.803640 0.886113
vt 0.667324 0.807122
vt 0.584655 0.117211
vt 0.597281 0.058743
vt 0.678817 0.157684
vt 0.652086 0.185885
vt 0.726227 0.783731
vt 0.818398 0.853504
vt 0.703847 0.429423
vt 0.758392 0.428780
vt 0.816171 0.523377
vt 0.776372 0.548360
vt 0.532117 0.548410
vt 0.723562 0.750783
vt 0.681670 0.755372
vt 0.485430 0.567184
vt 0.829111 0.841436
vt 0.102195 0.538718
vt 0.122000 0.485998
vt 0.278111 0.625601
vt 0.250314 0.659371
vt 0.736803 0.729638
vt 0.841444 0.831318
vt 0.266766 0.168662
vt 0.384564 0.313540
vt 0.354870 0.343935
vt 0.230356 0.206832
vt 0.532064 0.470572
vt 0.565753 0.498988
vt 0.548398 0.519138
vt 0.506737 0.495085
vt 0.751168 0.706252
vt 0.846746 0.815950
vt 0.557236 0.446231
vt 0.582348 0.480360
vt 0.667333 0.772378
vt 0.769352 0.684052
vt 0.859802 0.806460
vt 0.815368 0.277026
vt 0.861459 0.260719
vt 0.920106 0.322783
vt 0.894704 0.346540
vt 0.329795 0.040390
vt 0.350589 0.111579
vt 0.306486 0.136822
vt 0.272576 0.075254
vt 0.221427 0.117190
vt 0.174552 0.161351
vt 0.194869 0.251280
vt 0.129696 0.206206
vt 0.158548 0.299291
vt 0.086769 0.254127
vt 0.126322 0.348531
vt 0.050016 0.311392
vt 0.101377 0.397395
vt 0.028417 0.375307
vt 0.395427 0.019599
vt 0.397985 0.095115
vt 0.451550 0.260588
vt 0.582481 0.426682
vt 0.417263 0.285584
vt 0.485556 0.520653
vt 0.345671 0.394857
vt 0.320955 0.425166
vt 0.605117 0.464847
vt 0.859973 0.831203
vt 0.622412 0.426366
vt 0.375245 0.731024
vt 0.358796 0.752431
vt 0.092231 0.565814
vt 0.223396 0.683778
vt 0.156111 0.466848
vt 0.297910 0.599472
vt 0.047654 0.590041
vt 0.195966 0.716790
vt 0.344671 0.766856
vt 0.394614 0.711227
vt 0.327473 0.792019
vt 0.666016 0.292209
vt 0.670580 0.278912
vt 0.743314 0.322980
vt 0.688666 0.263599
vt 0.703228 0.257716
vt 0.725664 0.240370
vt 0.874775 0.233870
vt 0.933774 0.299591
vt 0.898967 0.188994
vt 0.956462 0.274729
vt 0.933442 0.181207
vt 0.983481 0.271813
vt 0.589720 0.244093
vt 0.597155 0.222090
vt 0.498269 0.152642
vt 0.504427 0.129230
vt 0.560412 0.119472
vt 0.631455 0.191832
vt 0.978157 0.355939
vt 0.457742 0.835471
vt 0.282412 0.388786
vt 0.304695 0.356187
vt 0.865298 0.574299
vt 0.839336 0.599282
vt 0.811381 0.359312
vt 0.839422 0.332311
vt 0.925436 0.439083
vt 0.891415 0.469568
vt 0.790646 0.411958
vt 0.859042 0.499643
vt 0.898415 0.563043
vt 0.963812 0.511190
vt 0.930179 0.536638
vt 0.953412 0.633006
vt 0.485273 0.238562
vn 0.907700 0.160600 -0.387800
vn 0.883300 0.075300 -0.462800
vn 0.937800 -0.086900 0.336000
vn 0.917400 0.246500 0.312300
vn 0.279600 0.024700 -0.959800
vn 0.424200 -0.042900 -0.904600
vn 0.909100 0.060600 -0.412200
vn 0.865800 0.055200 -0.497300
vn -0.053000 0.990900 -0.123500
vn 0.593700 -0.069500 0.801700
vn 0.828000 0.560300 -0.023400
vn 0.267100 0.254300 -0.929500
vn 0.764200 -0.181600 -0.618900
vn 0.995200 -0.066100 0.071600
vn 0.636000 0.358600 0.683300
vn -0.686200 0.160200 -0.709500
vn -0.488400 0.324600 -0.810000
vn -0.978700 -0.205200 -0.010800
vn -0.940600 0.318100 0.118200
vn -0.147600 0.509500 0.847700
vn -0.871200 -0.470200 0.141100
vn -0.758300 0.135900 -0.637600
vn -0.931000 -0.216000 -0.294300
vn -0.547200 -0.350500 -0.760100
vn -0.531300 -0.139700 -0.835600
vn -0.936700 0.253000 -0.242100
vn -0.819700 -0.064700 -0.569100
vn -0.687100 -0.179600 -0.704000
vn 0.131100 0.458400 -0.879100
vn -0.899600 -0.063100 0.432200
vn -0.911100 0.107100 0.398100
vn -0.270900 0.230800 0.934500
vn -0.277300 0.101600 0.955400
vn -0.880400 0.074800 0.468200
vn -0.865000 0.169200 0.472300
vn -0.278400 -0.024400 0.960100
vn -0.263400 0.277300 0.924000
vn -0.351000 0.229200 0.907900
vn -0.625200 -0.316400 0.713400
vn -0.306400 0.149200 0.940100
vn -0.502600 -0.361300 0.785400
vn 0.333500 -0.191600 0.923100
vn 0.187500 0.425200 0.885500
vn 0.457400 0.247500 0.854100
vn 0.597600 -0.266200 0.756300
vn 0.989200 -0.145500 0.015900
vn 0.878800 0.472700 -0.065700
vn 0.037400 0.584100 -0.810800
vn 0.815200 -0.379500 -0.437500
vn 0.895300 0.362600 0.258700
vn 0.926100 0.267200 0.266200
vn 0.465100 0.269600 0.843200
vn 0.466200 0.259600 0.845800
vn -0.271200 0.213300 0.938600
vn -0.846200 0.257600 0.466500
vn -0.965900 0.131100 -0.223200
vn -0.896100 0.359700 -0.260000
vn -0.455500 0.130900 -0.880600
vn -0.430600 0.451600 -0.781400
vn 0.300300 0.168500 -0.938900
vn 0.241200 0.487600 -0.839100
vn 0.853700 0.224800 -0.469800
vn 0.780000 0.454200 -0.430500
vn 0.965000 0.090200 0.246100
vn 0.467900 0.109400 0.877000
vn 0.061400 0.248000 -0.966800
vn -0.472200 0.228300 0.851400
vn -0.833700 0.090600 -0.544700
vn 0.307000 0.524600 -0.794100
vn 0.707200 0.215600 0.673400
vn -0.224400 -0.497400 0.838000
vn 0.780900 0.038100 0.623400
vn -0.365600 -0.408700 0.836200
vn 0.968100 0.130100 -0.214100
vn -0.645700 -0.194200 -0.738500
vn -0.273500 0.873600 -0.402500
vn -0.993900 0.023300 0.107500
vn 0.678400 0.334300 0.654200
vn -0.523000 0.400300 0.752500
vn 0.157100 -0.429800 0.889100
vn -0.516200 -0.376400 -0.769300
vn -0.979300 0.067600 -0.190700
vn 0.677600 0.423400 0.601300
vn -0.339700 0.777100 0.529900
vn -0.135500 -0.327600 -0.935000
vn -0.144100 0.644500 0.750900
vn -0.983700 0.112800 -0.139900
vn 0.131400 -0.502700 -0.854400
vn 0.872500 0.365900 -0.323900
vn 0.983000 0.166700 -0.077400
vn -0.060000 -0.349600 -0.935000
vn -0.411100 0.827800 -0.381900
usemtl barkMaterial
s 1
f 29/25/41 30/26/42 31/27/43 32/28/44
f 33/29/45 34/30/46 35/31/47 36/32/48
f 31/27/43 37/33/49 25/34/50
f 38/35/51 39/36/52 30/37/42 29/38/41
f 38/39/51 40/40/53 41/41/54 42/42/55
f 43/43/56 44/44/57 39/36/52 38/35/51
f 45/45/58 46/46/59 47/47/60 48/48/61
f 49/49/62 50/50/63 51/51/64 52/52/65
f 50/50/63 53/53/66 44/44/57 43/43/56
f 49/54/62 54/55/67 55/56/68 56/57/69
f 57/58/70 58/59/71 53/53/66 50/50/63
f 59/60/72 60/61/73 61/62/74 62/63/75
f 63/64/76 64/65/77 65/66/78 66/67/79
f 67/68/80 27/69/81 58/59/71 57/58/70
f 68/70/82 69/71/83 64/65/77 63/64/76
f 34/30/46 40/72/53 29/38/41 35/31/47
f 70/73/84 28/74/85 27/69/81 67/68/80
f 71/75/86 72/76/87 73/77/88 74/78/89
f 32/28/44 31/27/43 28/74/85 70/73/84
f 75/79/90 76/80/91 77/81/92 78/82/93
f 78/82/93 77/81/92 59/60/72 79/83/94
f 79/83/94 59/60/72 62/63/75 80/84/95
f 80/84/95 62/63/75 81/85/96 82/86/97
f 82/86/97 81/85/96 83/87/98 84/88/99
f 84/88/99 83/87/98 85/89/100 86/90/101
f 86/90/101 85/89/100 87/91/102 88/92/103
f 88/93/103 87/94/102 76/80/91 75/79/90
f 89/95/104 71/96/86 68/70/82 90/97/105
f 90/97/105 68/70/82 63/64/76 60/61/73
f 60/61/73 63/64/76 66/67/79 61/62/74
f 61/62/74 66/67/79 54/98/67 46/99/59
f 91/100/106 52/52/65 34/30/46 33/29/45
f 72/101/87 32/28/44 70/73/84 69/71/83
f 50/50/63 43/43/56 51/51/64
f 26/102/107 37/33/49 58/59/71
f 31/27/43 25/34/50 28/74/85
f 69/71/83 70/73/84 67/68/80 64/65/77
f 64/65/77 67/68/80 57/58/70 65/66/78
f 65/66/78 57/58/70 50/50/63 49/49/62
f 35/103/47 29/25/41 32/28/44 72/101/87
f 52/52/65 51/51/64 40/72/53 34/30/46
f 39/36/52 37/33/49 30/37/42
f 40/72/53 38/35/51 29/38/41
f 56/57/69 55/56/68 92/104/108 93/105/109
f 65/106/78 49/54/62 56/57/69 94/107/110
f 54/55/67 66/108/79 95/109/111 55/56/68
f 66/110/79 65/106/78 94/107/110 95/111/111
f 27/69/81 26/102/107 58/59/71
f 94/107/110 56/57/69 93/105/109 96/112/112
f 55/56/68 95/109/111 97/113/113 92/104/108
f 95/111/111 94/107/110 96/112/112 97/114/113
f 98/115/114 99/116/115 100/117/116
f 101/118/117 102/119/118 100/117/116
f 102/119/118 98/120/114 100/117/116
f 99/116/115 101/118/117 100/117/116
f 44/44/57 37/33/49 39/36/52
f 72/76/87 69/121/83 103/122/119 73/77/88
f 69/121/83 68/123/82 104/124/120 103/122/119
f 68/123/82 71/125/86 74/126/89 104/124/120
f 53/53/66 37/33/49 44/44/57
f 58/59/71 37/33/49 53/53/66
f 25/34/50 37/33/49 26/102/107
f 41/127/54 105/128/121 99/116/115 98/115/114
f 40/129/53 51/130/64 105/128/121 41/127/54
f 43/131/56 38/39/51 42/42/55 106/132/122
f 51/130/64 43/131/56 106/132/122 105/128/121
f 105/128/121 106/132/122 101/118/117 99/116/115
f 42/42/55 41/41/54 98/120/114 102/119/118
f 106/132/122 42/42/55 102/119/118 101/118/117
f 74/78/89 73/77/88 107/133/123
f 103/122/119 104/124/120 107/133/123
f 73/77/88 103/122/119 107/133/123
f 104/124/120 74/126/89 107/133/123
f 30/26/42 37/33/49 31/27/43
f 92/104/108 97/113/113 108/134/124
f 97/114/113 96/112/112 108/134/124
f 93/105/109 92/104/108 108/134/124
f 96/112/112 93/105/109 108/134/124
f 76/80/91 89/95/104 90/97/105 77/81/92
f 77/81/92 90/97/105 60/61/73 59/60/72
f 85/89/100 33/29/45 36/32/48 87/91/102
f 83/87/98 109/135/125 33/29/45 85/89/100
f 81/85/96 45/136/58 109/135/125 83/87/98
f 109/135/125 91/100/106 33/29/45
f 48/48/61 47/47/60 110/137/126 111/138/127
f 109/139/125 45/140/58 48/141/61 112/142/128
f 46/46/59 91/143/106 113/144/129 47/47/60
f 91/143/106 109/139/125 112/142/128 113/144/129
f 47/47/60 113/144/129 114/145/130 110/137/126
f 112/142/128 48/141/61 111/146/127 115/147/131
f 113/144/129 112/142/128 115/147/131 114/145/130
f 115/147/131 111/146/127 116/148/132
f 114/145/130 115/147/131 116/148/132
f 111/138/127 110/137/126 116/148/132
f 110/137/126 114/145/130 116/148/132
f 61/62/74 46/99/59 45/136/58
f 87/94/102 36/149/48 89/95/104 76/80/91
f 62/63/75 61/62/74 45/136/58 81/85/96
f 35/103/47 72/101/87 71/96/86
f 46/99/59 54/98/67 52/52/65 91/100/106
f 54/98/67 49/49/62 52/52/65
f 36/149/48 35/103/47 71/96/86 89/95/104
o Icosahedron7
v 6.454991 9.246326 15.448971
v 6.150761 9.246326 16.996544
v 6.454991 6.694374 15.448971
v 6.150761 6.694374 16.996544
v 5.050863 7.181754 15.976629
v 5.050863 8.758947 15.976629
v 7.554889 7.181754 16.468885
v 7.554889 8.758947 16.468885
v 6.830534 7.970350 17.626886
v 5.282961 7.970350 17.322655
v 7.322791 7.970350 15.122860
v 5.775218 7.970350 14.818629
vt 1.775976 0.500000
vt 0.500000 1.288597
vt 1.288597 1.775976
vt 0.500000 -0.775976
vt 1.288597 0.500000
vt -0.288597 0.500000
vt 0.500000 1.775976
vt -0.775976 0.500000
vt -0.288597 1.775976
vt 0.500000 -0.288597
vt -0.288597 -0.775976
vt 1.288597 -0.775976
vn -0.455100 0.577400 -0.677900
vn -0.350100 0.934200 -0.068800
vn 0.350100 0.934200 0.068800
vn 0.677900 0.577400 -0.455100
vn 0.180200 0.356800 -0.916600
vn -0.677900 0.577400 0.455100
vn -0.847800 0.000000 -0.530300
vn 0.180200 -0.356800 -0.916600
vn 0.985500 0.000000 -0.169900
vn 0.455100 0.577400 0.677900
vn -0.677900 -0.577400 0.455100
vn -0.350100 -0.934200 -0.068800
vn 0.350100 -0.934200 0.068800
vn 0.455100 -0.577400 0.677900
vn -0.180200 -0.356800 0.916600
vn -0.985500 0.000000 0.169900
vn -0.455100 -0.577400 -0.677900
vn 0.677900 -0.577400 -0.455100
vn 0.847800 0.000000 0.530300
vn -0.180200 0.356800 0.916600
usemtl bush_1024x1024_jpgMaterial
s 1
f 128/150/133 122/151/133 117/152/133
f 122/153/134 118/154/134 117/155/134
f 118/155/135 124/156/135 117/154/135
f 124/151/136 127/157/136 117/158/136
f 127/155/137 128/154/137 117/156/137
f 122/151/138 126/150/138 118/152/138
f 128/150/139 121/159/139 122/151/139
f 127/154/140 119/153/140 128/155/140
f 124/151/141 123/159/141 127/157/141
f 118/158/142 125/157/142 124/151/142
f 126/157/143 121/159/143 120/160/143
f 121/153/144 119/154/144 120/155/144
f 119/155/145 123/156/145 120/154/145
f 123/159/146 125/150/146 120/161/146
f 125/155/147 126/154/147 120/153/147
f 126/150/148 122/151/148 121/159/148
f 121/159/149 128/157/149 119/160/149
f 119/161/150 127/150/150 123/159/150
f 123/159/151 124/151/151 125/157/151
f 125/154/152 118/156/152 126/155/152
o Icosahedron6
v 7.277919 5.341527 13.228201
v 6.973688 5.341527 14.775774
v 7.277919 2.789574 13.228201
v 6.973688 2.789574 14.775774
v 5.873791 3.276954 13.755859
v 5.873791 4.854147 13.755859
v 8.377816 3.276954 14.248116
v 8.377816 4.854147 14.248116
v 7.653462 4.065550 15.406116
v 6.105889 4.065550 15.101885
v 8.145718 4.065550 12.902090
v 6.598145 4.065550 12.597859
vt 1.775976 0.500000
vt 0.500000 1.288597
vt 1.288597 1.775976
vt 0.500000 -0.775976
vt 1.288597 0.500000
vt -0.288597 0.500000
vt 0.500000 1.775976
vt -0.775976 0.500000
vt -0.288597 1.775976
vt 0.500000 -0.288597
vt -0.288597 -0.775976
vt 1.288597 -0.775976
vn -0.455100 0.577400 -0.677900
vn -0.350100 0.934200 -0.068800
vn 0.350100 0.934200 0.068800
vn 0.677900 0.577300 -0.455100
vn 0.180200 0.356800 -0.916600
vn -0.677900 0.577400 0.455100
vn -0.847800 0.000000 -0.530300
vn 0.180200 -0.356800 -0.916600
vn 0.985500 0.000000 -0.169900
vn 0.455100 0.577400 0.677900
vn -0.677900 -0.577400 0.455100
vn -0.350100 -0.934200 -0.068800
vn 0.350100 -0.934200 0.068800
vn 0.455100 -0.577400 0.677900
vn -0.180200 -0.356800 0.916600
vn -0.985500 0.000000 0.169900
vn -0.455100 -0.577400 -0.677900
vn 0.677900 -0.577300 -0.455100
vn 0.847800 0.000000 0.530300
vn -0.180200 0.356800 0.916600
usemtl bush_1024x1024_jpgMaterial
s 1
f 140/162/153 134/163/153 129/164/153
f 134/165/154 130/166/154 129/167/154
f 130/167/155 136/168/155 129/166/155
f 136/163/156 139/169/156 129/170/156
f 139/167/157 140/166/157 129/168/157
f 134/163/158 138/162/158 130/164/158
f 140/162/159 133/171/159 134/163/159
f 139/166/160 131/165/160 140/167/160
f 136/163/161 135/171/161 139/169/161
f 130/170/162 137/169/162 136/163/162
f 138/169/163 133/171/163 132/172/163
f 133/165/164 131/166/164 132/167/164
f 131/167/165 135/168/165 132/166/165
f 135/171/166 137/162/166 132/173/166
f 137/167/167 138/166/167 132/165/167
f 138/162/168 134/163/168 133/171/168
f 133/171/169 140/169/169 131/172/169
f 131/173/170 139/162/170 135/171/170
f 135/171/171 136/163/171 137/169/171
f 137/166/172 130/168/172 138/167/172
o Icosahedron8
v 6.159806 6.697227 16.950531
v 5.855575 6.697227 18.498104
v 6.159806 4.145274 16.950531
v 5.855575 4.145274 18.498104
v 4.755678 4.632654 17.478189
v 4.755678 6.209847 17.478189
v 7.259703 4.632654 17.970446
v 7.259703 6.209847 17.970446
v 6.535349 5.421250 19.128447
v 4.987776 5.421250 18.824215
v 7.027605 5.421250 16.624420
v 5.480032 5.421250 16.320189
vt 1.775976 0.500000
vt 0.500000 1.288597
vt 1.288597 1.775976
vt 0.500000 -0.775976
vt 1.288597 0.500000
vt -0.288597 0.500000
vt 0.500000 1.775976
vt -0.775976 0.500000
vt -0.288597 1.775976
vt 0.500000 -0.288597
vt -0.288597 -0.775976
vt 1.288597 -0.775976
vn -0.455100 0.577400 -0.677900
vn -0.350100 0.934200 -0.068800
vn 0.350100 0.934200 0.068800
vn 0.677900 0.577400 -0.455100
vn 0.180200 0.356800 -0.916600
vn -0.677900 0.577400 0.455100
vn -0.847800 0.000000 -0.530300
vn 0.180200 -0.356800 -0.916600
vn 0.985500 0.000000 -0.169900
vn 0.455100 0.577400 0.677900
vn -0.677900 -0.577400 0.455100
vn -0.350100 -0.934200 -0.068800
vn 0.350100 -0.934200 0.068800
vn 0.455100 -0.577400 0.677900
vn -0.180200 -0.356800 0.916600
vn -0.985500 0.000000 0.169900
vn -0.455100 -0.577400 -0.677900
vn 0.677900 -0.577400 -0.455100
vn 0.847800 0.000000 0.530300
vn -0.180200 0.356800 0.916600
usemtl bush_1024x1024_jpgMaterial
s 1
f 152/174/173 146/175/173 141/176/173
f 146/177/174 142/178/174 141/179/174
f 142/179/175 148/180/175 141/178/175
f 148/175/176 151/181/176 141/182/176
f 151/179/177 152/178/177 141/180/177
f 146/175/178 150/174/178 142/176/178
f 152/174/179 145/183/179 146/175/179
f 151/178/180 143/177/180 152/179/180
f 148/175/181 147/183/181 151/181/181
f 142/182/182 149/181/182 148/175/182
f 150/181/183 145/183/183 144/184/183
f 145/177/184 143/178/184 144/179/184
f 143/179/185 147/180/185 144/178/185
f 147/183/186 149/174/186 144/185/186
f 149/179/187 150/178/187 144/177/187
f 150/174/188 146/175/188 145/183/188
f 145/183/189 152/181/189 143/184/189
f 143/185/190 151/174/190 147/183/190
f 147/183/191 148/175/191 149/181/191
f 149/178/192 142/180/192 150/179/192
